<svg width="42" height="42" viewBox="0 0 42 42" fill="none" xmlns="http://www.w3.org/2000/svg">
<path d="M0 10C0 4.47715 4.47715 0 10 0H32C37.5228 0 42 4.47715 42 10V32C42 37.5228 37.5228 42 32 42H10C4.47715 42 0 37.5228 0 32V10Z" fill="#D9D9D9"/>
<path d="M6.888 19.824C6.408 19.696 5.864 19.44 5.256 19.056C4.648 18.64 4.12 18.128 3.672 17.52C3.224 16.88 3 16.176 3 15.408C3 15.056 3.064 14.704 3.192 14.352C3.192 14.32 3.192 14.208 3.192 14.016C3.224 13.824 3.256 13.664 3.288 13.536C3.64 11.936 4.456 10.624 5.736 9.6C7.016 8.544 8.584 7.728 10.44 7.152C12.296 6.576 14.232 6.224 16.248 6.096C16.664 6.064 17.064 6.048 17.448 6.048C17.832 6.016 18.2 6 18.552 6C20.568 6 22.408 6.144 24.072 6.432C25.736 6.688 27.384 6.96 29.016 7.248C30.648 7.536 32.424 7.712 34.344 7.776C34.76 7.264 35.16 6.896 35.544 6.672C35.96 6.416 36.28 6.272 36.504 6.24C36.6 6.208 36.728 6.192 36.888 6.192C37.208 6.192 37.496 6.272 37.752 6.432C38.008 6.592 38.136 6.8 38.136 7.056C38.136 7.28 38.008 7.52 37.752 7.776C37.528 8 37.208 8.256 36.792 8.544C36.376 8.832 35.944 9.2 35.496 9.648C34.92 10.192 34.392 10.816 33.912 11.52C33.464 12.192 33.24 12.864 33.24 13.536C33.24 14.048 33.368 14.48 33.624 14.832C33.656 14.864 33.672 14.912 33.672 14.976C33.672 15.2 33.544 15.312 33.288 15.312C33.096 15.312 32.904 15.2 32.712 14.976C32.424 14.624 32.28 13.936 32.28 12.912C32.28 12.368 32.344 11.792 32.472 11.184C32.6 10.576 32.792 10.016 33.048 9.504C33.176 9.312 33.288 9.136 33.384 8.976C33.48 8.784 33.592 8.608 33.72 8.448C31.384 8.544 29.096 8.464 26.856 8.208C24.616 7.92 22.36 7.776 20.088 7.776C18.808 7.776 17.336 7.904 15.672 8.16C14.008 8.416 12.376 8.832 10.776 9.408C9.176 9.952 7.8 10.72 6.648 11.712C5.496 12.672 4.76 13.872 4.44 15.312C4.408 15.44 4.376 15.552 4.344 15.648C4.344 15.744 4.344 15.84 4.344 15.936C4.344 16.544 4.52 17.056 4.872 17.472C5.256 17.888 5.688 18.24 6.168 18.528C6.648 18.784 7.016 19.024 7.272 19.248C7.496 19.376 7.608 19.504 7.608 19.632C7.608 19.76 7.528 19.84 7.368 19.872C7.24 19.904 7.08 19.888 6.888 19.824ZM11.64 35.232C11.544 35.232 11.352 35.2 11.064 35.136C10.776 35.072 10.504 34.992 10.248 34.896C9.992 34.8 9.848 34.688 9.816 34.56C9.752 33.92 9.912 33.008 10.296 31.824C10.712 30.64 11.256 29.328 11.928 27.888C12.632 26.448 13.352 25.04 14.088 23.664C13.224 23.76 12.568 23.808 12.12 23.808C11.864 23.808 11.592 23.696 11.304 23.472C11.048 23.248 10.92 22.944 10.92 22.56C10.92 22.24 11.096 21.968 11.448 21.744C11.8 21.488 12.184 21.296 12.6 21.168C13.048 21.04 13.368 20.976 13.56 20.976C13.976 20.976 14.264 21.136 14.424 21.456C14.584 21.744 14.744 21.888 14.904 21.888H15.096C15.576 20.992 15.992 20.192 16.344 19.488C16.728 18.784 17.032 18.224 17.256 17.808C17.512 17.264 17.64 16.816 17.64 16.464C17.64 16.304 17.624 16.192 17.592 16.128C17.592 16.032 17.576 15.952 17.544 15.888C17.608 15.504 17.848 14.992 18.264 14.352C18.68 13.712 19.192 13.072 19.8 12.432C20.408 11.792 21.048 11.264 21.72 10.848C22.424 10.4 23.096 10.176 23.736 10.176C23.928 10.176 24.264 10.256 24.744 10.416C25.224 10.544 25.656 10.768 26.04 11.088C26.424 11.408 26.584 11.824 26.52 12.336C26.296 12.176 26.104 12.096 25.944 12.096C25.08 12.096 24.136 12.56 23.112 13.488C22.088 14.416 21.048 15.632 19.992 17.136C18.936 18.608 17.928 20.176 16.968 21.84C17.512 21.776 18.056 21.712 18.6 21.648C19.144 21.584 19.688 21.504 20.232 21.408C21.384 21.248 22.568 21.088 23.784 20.928C25.032 20.768 26.216 20.688 27.336 20.688C27.528 20.688 27.736 20.72 27.96 20.784C28.184 20.816 28.296 20.896 28.296 21.024C28.296 21.088 28.216 21.184 28.056 21.312C27.928 21.408 27.672 21.536 27.288 21.696C26.776 21.888 25.88 22.096 24.6 22.32C23.32 22.544 21.896 22.768 20.328 22.992C18.792 23.184 17.336 23.36 15.96 23.52C15.16 25.024 14.44 26.448 13.8 27.792C13.16 29.104 12.68 30.16 12.36 30.96C12.232 31.28 12.136 31.568 12.072 31.824C12.008 32.08 11.976 32.288 11.976 32.448C11.976 32.896 12.136 33.12 12.456 33.12C12.68 33.12 12.92 33.04 13.176 32.88C13.432 32.688 13.672 32.464 13.896 32.208C14.248 31.792 14.568 31.408 14.856 31.056C15.144 30.672 15.4 30.512 15.624 30.576C15.656 30.608 15.672 30.656 15.672 30.72C15.672 30.912 15.576 31.136 15.384 31.392C15.192 31.648 15.08 31.792 15.048 31.824C14.792 32.144 14.472 32.576 14.088 33.12C13.736 33.664 13.352 34.144 12.936 34.56C12.52 35.008 12.088 35.232 11.64 35.232Z" fill="black"/>
</svg>
